<svg xmlns="http://www.w3.org/2000/svg" width="2307" height="2500" viewBox="0 0 1000 1083.89"><path fill="#3277BC" d="M316.997 436.854h383.437c0-136.13-59.4-228.94-221.36-228.94C287.674 207.913 93.033 332.514.5 487.876 29.162 218.213 222.513.5 513.607.5 763.109.5 999.5 191.264 999.5 508.374v120.563H319.04c0 164.094 143.148 229.11 293.07 229.11 182.448 0 295.435-81.985 295.435-81.985v229.852s-127.548 77.477-330.852 77.477c-264.197 0-450.687-189.34-450.687-424.789 0-184.808 111.788-332.36 266.628-393.245-75.372 82.777-75.638 171.497-75.638 171.497z"/></svg>