<svg id="Layer_1" xmlns="http://www.w3.org/2000/svg" viewBox="0 0 310 149.5" width="2500" height="1206"><style>.st0{fill:#ed1846}.st1{fill:#fff}</style><title>Riot Logo</title><path class="st0" d="M8.9 0H301c4.9 0 8.9 4 8.9 8.9v131.6c0 4.9-4 8.9-8.9 8.9H8.9c-4.9 0-8.9-4-8.9-8.9V8.9C0 4 4 0 8.9 0z"/><path class="st1" d="M57 48.3h26.9c9.8 0 16 2.4 19.8 6.3 3.3 3.3 5 7.4 5 13.1v.2c0 8-4.2 13.6-10.9 16.9l12.8 18.7h-21L79.4 87.6h-3.9v15.7H57v-55zm26.4 26.2c4.4 0 7.1-2 7.1-5.4V69c0-3.5-2.8-5.3-7-5.3h-8v10.8h7.9zM120.6 48.3H139v55.1h-18.4V48.3zM149.7 76v-.2c0-16 13.2-28.7 30.2-28.7s30 12.6 30 28.6v.2c0 16-13.1 28.7-30.2 28.7-17 0-30-12.6-30-28.6zm41.6 0v-.2c0-6.5-4.5-12.4-11.6-12.4-7 0-11.4 5.8-11.4 12.3v.2c0 6.5 4.5 12.4 11.6 12.4 6.9 0 11.4-5.9 11.4-12.3zM231.3 63.8h-16.2V48.3H266v15.6h-16.2v39.5h-18.4V63.8z"/></svg>