<svg width="111" height="116" viewBox="0 0 111 116" fill="none" xmlns="http://www.w3.org/2000/svg">
<path d="M0 1.64706C0 0.737413 0.737411 0 1.64706 0L75.3214 0C95.0262 0 111 16.0278 111 35.7992V42.1075C111 43.0172 110.263 43.7546 109.353 43.7546H88.8613C87.9517 43.7546 87.2143 43.0171 87.2143 42.1075V35.7992C87.2143 29.2087 81.8897 23.8661 75.3214 23.8661L25.4328 23.8661C24.5231 23.8661 23.7857 24.6035 23.7857 25.5132L23.7857 105.751C23.7857 106.66 23.0459 107.404 22.1384 107.341C9.77036 106.492 0 96.1567 0 83.5314L0 1.64706Z" fill="#ED1846"/>
<path d="M45.2542 47.7323C44.3446 47.7323 43.6013 48.4721 43.6629 49.3796C44.5063 61.7921 54.8082 71.5984 67.3929 71.5984H83.25C85.4394 71.5984 87.2143 73.3793 87.2143 75.5761V105.751C87.2143 106.66 87.9541 107.404 88.8616 107.341C101.23 106.492 111 96.1567 111 83.5314V75.5761C111 60.1983 98.5759 47.7323 83.25 47.7323L45.2542 47.7323Z" fill="#ED1846"/>
</svg>
