<svg width="21" height="21" xmlns="http://www.w3.org/2000/svg"><path d="M18.048 11.746v.012H21v3.7h-4.324c-.34 0-.858-.142-1.148-.315l-1.038-.61c-.29-.173-.772-.173-1.062 0l-1.347.789c-.29.166-.29.45 0 .622l2.829 1.659c.29.173.81.314 1.149.314H21v2.466c0 .34-.278.617-.618.617H.618A.619.619 0 0 1 0 20.383v-2.466h4.942a2.66 2.66 0 0 0 1.148-.314l9.438-5.543c.29-.172.809-.314 1.148-.314h1.372zm0-6.051H21V9.43h-4.942a2.65 2.65 0 0 0-1.148.317l-9.438 5.597a2.65 2.65 0 0 1-1.148.317H0v-3.735h4.942a2.65 2.65 0 0 0 1.148-.317l9.438-5.597a2.65 2.65 0 0 1 1.148-.317h1.372zM20.382 0c.34 0 .618.278.618.605v2.47h-4.942a2.66 2.66 0 0 0-1.148.314L5.472 8.94c-.29.173-.809.315-1.148.315H0V5.55h4.324c.34 0 .858.142 1.148.315l1.038.611c.29.173.772.173 1.062 0l1.347-.79c.29-.167.29-.45 0-.624L6.09 3.402a2.665 2.665 0 0 0-1.149-.315H0V.617A.62.62 0 0 1 .618 0h19.764z" fill="#D8C6A6"/></svg>